<?xml version="1.0" encoding="utf-8"?>
<!-- Generator: Adobe Illustrator 24.0.2, SVG Export Plug-In . SVG Version: 6.00 Build 0)  -->
<svg version="1.1" id="Layer_1" xmlns="http://www.w3.org/2000/svg" xmlns:xlink="http://www.w3.org/1999/xlink" x="0px" y="0px"
	 viewBox="0 0 800.3 672.5" style="enable-background:new 0 0 800.3 672.5;" xml:space="preserve">
<style type="text/css">
	.st0{fill:none;}
	.st1{fill:#FEBF12;}
	.st2{fill:#84748B;}
	.st3{fill:#FFFFFF;}
	.st4{fill:#CCC4D4;}
	.st5{stroke:#231F20;stroke-width:0.5;stroke-miterlimit:10;}
	.st6{fill:#FFFFFF;stroke:#000000;stroke-width:5;stroke-miterlimit:10;}
	.st7{fill:#F8C44F;}
	.st8{stroke:#000000;stroke-width:0.77;stroke-miterlimit:10;}
	.st9{fill:none;stroke:#000000;stroke-width:3.48;stroke-linejoin:round;}
	.st10{fill:none;stroke:#000000;stroke-width:3.48;stroke-miterlimit:10;}
	.st11{fill:none;stroke:#000000;stroke-width:3.48;stroke-linecap:round;stroke-miterlimit:10;}
	.st12{fill:#CCC4D4;stroke:#CCC4D4;stroke-width:7;stroke-miterlimit:10;}
	.st13{fill:#282D33;}
	.st14{fill:none;stroke:#000000;stroke-width:3.5;stroke-miterlimit:10;}
	.st15{enable-background:new    ;}
</style>
<line class="st0" x1="145.4" y1="165.5" x2="135.5" y2="165.5"/>
<polygon class="st1" points="546.6,124.1 529.9,166.6 545.7,206.8 579.2,206.8 "/>
<path class="st2" d="M360.2,189.5h-20v-78.6c-0.5-50.4,39.9-91.7,90.3-92.3s91.7,39.9,92.3,90.3c0,0.6,0,1.3,0,1.9v87.4h-20v-87.4
	c0.5-39.4-31.1-71.7-70.5-72.1s-71.7,31.1-72.1,70.5c0,0.6,0,1.1,0,1.7L360.2,189.5L360.2,189.5z"/>
<path d="M514.8,198.3h-4v-87.4c0.5-43.8-34.6-79.7-78.4-80.2s-79.7,34.6-80.2,78.4c0,0.6,0,1.2,0,1.8v74.8h-4v-74.8
	c-0.5-46,36.4-83.7,82.4-84.2s83.7,36.4,84.2,82.4c0,0.6,0,1.2,0,1.8V198.3z"/>
<polygon class="st3" points="532.7,166.6 530.3,160.5 513.2,116.9 477.4,207.8 517.9,204.2 532.3,167.8 "/>
<path d="M518.9,208l-44.4-0.2l38.6-98.1l22.5,57L518.9,208z M480.9,203h34l15-36.4l-16.8-42.5l-32.9,83.6L480.9,203z"/>
<path d="M551.4,206.8H514l18.7-47.5L551.4,206.8z M520.9,203h23l-11.2-29.1L520.9,203z"/>
<rect x="181.5" y="4.3" class="st2" width="59.4" height="201.7"/>
<rect x="179.8" class="st2" width="62.7" height="10.6"/>
<polyline class="st3" points="135.3,206 135.3,96.8 193.1,96.8 193.1,206 "/>
<polygon points="195.7,206 190.4,206 190.4,99.4 137.9,99.4 137.9,206 132.7,206 132.7,94.2 195.7,94.2 "/>
<rect x="133.6" y="86" class="st3" width="61.1" height="12.9"/>
<path d="M197.3,101.5H131V83.4h66.3V101.5z M136.3,96.3h55.9v-7.6h-55.9L136.3,96.3L136.3,96.3z"/>
<line class="st0" x1="144.7" y1="113.3" x2="152.5" y2="113.3"/>
<rect x="144.7" y="110.7" width="7.7" height="5.3"/>
<line class="st0" x1="160.2" y1="113.3" x2="167.9" y2="113.3"/>
<rect x="160.2" y="110.7" width="7.7" height="5.3"/>
<line class="st0" x1="175.6" y1="113.3" x2="183.4" y2="113.3"/>
<rect x="175.6" y="110.7" width="7.8" height="5.3"/>
<line class="st0" x1="144.7" y1="127.9" x2="152.5" y2="127.9"/>
<rect x="144.7" y="125.3" width="7.7" height="5.3"/>
<line class="st0" x1="160.2" y1="127.9" x2="167.9" y2="127.9"/>
<rect x="160.2" y="125.3" width="7.7" height="5.3"/>
<line class="st0" x1="175.6" y1="127.9" x2="183.4" y2="127.9"/>
<rect x="175.6" y="125.3" width="7.8" height="5.3"/>
<line class="st0" x1="144.7" y1="142.6" x2="152.5" y2="142.6"/>
<rect x="144.7" y="139.9" width="7.7" height="5.3"/>
<line class="st0" x1="160.2" y1="142.6" x2="167.9" y2="142.6"/>
<rect x="160.2" y="139.9" width="7.7" height="5.3"/>
<line class="st0" x1="175.6" y1="142.6" x2="183.4" y2="142.6"/>
<rect x="175.6" y="139.9" width="7.8" height="5.3"/>
<line class="st0" x1="144.7" y1="157.2" x2="152.5" y2="157.2"/>
<rect x="144.7" y="154.6" width="7.7" height="5.3"/>
<line class="st0" x1="160.2" y1="157.2" x2="167.9" y2="157.2"/>
<rect x="160.2" y="154.6" width="7.7" height="5.3"/>
<line class="st0" x1="175.6" y1="157.2" x2="183.4" y2="157.2"/>
<rect x="175.6" y="154.6" width="7.8" height="5.3"/>
<line class="st0" x1="144.7" y1="171.8" x2="152.5" y2="171.8"/>
<rect x="144.7" y="169.2" width="7.7" height="5.3"/>
<line class="st0" x1="160.2" y1="171.8" x2="167.9" y2="171.8"/>
<rect x="160.2" y="169.2" width="7.7" height="5.3"/>
<line class="st0" x1="175.6" y1="171.8" x2="183.4" y2="171.8"/>
<rect x="175.6" y="169.2" width="7.8" height="5.3"/>
<line class="st0" x1="144.7" y1="186.5" x2="152.5" y2="186.5"/>
<rect x="144.7" y="183.9" width="7.7" height="5.3"/>
<line class="st0" x1="160.2" y1="186.5" x2="167.9" y2="186.5"/>
<rect x="160.2" y="183.9" width="7.7" height="5.3"/>
<line class="st0" x1="175.6" y1="186.5" x2="183.4" y2="186.5"/>
<rect x="175.6" y="183.9" width="7.8" height="5.3"/>
<polyline class="st4" points="235.5,206 235.5,73.7 289.1,73.7 289.1,206 "/>
<polygon points="291.7,206 286.4,206 286.4,76.3 238.1,76.3 238.1,206 232.9,206 232.9,71 291.7,71 "/>
<rect x="242.9" y="60.1" class="st4" width="38.8" height="13.5"/>
<path d="M284.3,76.2h-44V57.5h44V76.2z M245.5,71H279v-8.2h-33.5V71z"/>
<rect x="244.2" y="85.3" class="st3" width="36.1" height="5.3"/>
<rect x="244.2" y="102.1" class="st3" width="36.1" height="5.3"/>
<rect x="244.2" y="118.8" class="st3" width="36.1" height="5.3"/>
<rect x="244.2" y="135.5" class="st3" width="36.1" height="5.3"/>
<rect x="244.2" y="152.2" class="st3" width="36.1" height="5.3"/>
<rect x="244.2" y="169" class="st3" width="36.1" height="5.3"/>
<rect x="244.2" y="185.7" class="st3" width="36.1" height="5.3"/>
<line class="st0" x1="262.3" y1="58.3" x2="262.3" y2="38.8"/>
<rect x="259.6" y="38.8" width="5.3" height="19.5"/>
<polyline class="st3" points="271.8,206 271.8,161.1 358.9,161.1 358.9,206 "/>
<polygon points="361.6,206 356.3,206 356.3,163.7 274.4,163.7 274.4,206 269.1,206 269.1,158.4 361.6,158.4 "/>
<rect x="284.6" y="182.8" class="st1" width="61.5" height="23.2"/>
<rect x="282" y="182.1" width="67.1" height="5.3"/>
<rect x="312.9" y="183.1" width="5.3" height="22.9"/>
<rect x="271.8" y="167.8" width="87.1" height="5.3"/>
<path class="st4" d="M319.5,69.5h69.4c0-0.1,0-0.1,0-0.2c0-7.7-6.2-13.9-13.9-14c-1.3,0-2.6,0.2-3.9,0.5
	c-1.6-11.2-11.9-19-23.1-17.4c-10.1,1.4-17.6,10-17.6,20.2v0.1C324.7,59.5,320.3,63.9,319.5,69.5z"/>
<path class="st5" d="M421.2,194.2c-10.8,0-20.6-6.4-24.9-16.3c-0.5-1.2,0.1-2.6,1.4-3.1c1.1-0.4,2.4,0.1,3,1.2
	c5,11.4,18.2,16.6,29.6,11.6c5.5-2.4,9.8-6.9,12-12.5c0.5-1.2,1.9-1.7,3.1-1.2c1.1,0.5,1.6,1.7,1.3,2.9
	C442.5,187.3,432.4,194.2,421.2,194.2z"/>
<path class="st5" d="M467.5,191.8"/>
<path class="st5" d="M467.5,194.2c-11.3,0.1-21.4-6.8-25.4-17.3c-0.5-1.2,0-2.6,1.2-3.1s2.6,0,3.1,1.2c0,0.1,0.1,0.2,0.1,0.3
	c3.3,8.7,11.7,14.4,21,14.3c1.3-0.1,2.4,0.9,2.5,2.2s-0.9,2.4-2.2,2.5C467.7,194.2,467.6,194.2,467.5,194.2L467.5,194.2z"/>
<path class="st5" d="M375.6,194.2c-1.3-0.1-2.3-1.2-2.2-2.5c0.1-1.2,1-2.1,2.2-2.2c8.9,0,17-5.3,20.6-13.5c0.6-1.2,2-1.7,3.2-1.1
	c1.1,0.5,1.6,1.8,1.2,3C396.2,187.8,386.4,194.2,375.6,194.2z"/>
<path class="st5" d="M375.6,191.8"/>
<line class="st0" x1="215.4" y1="21.7" x2="206.9" y2="21.7"/>
<rect x="206.9" y="19.1" width="8.5" height="5.3"/>
<rect x="109.7" y="206.5" class="st6" width="618" height="228"/>
<path class="st7" d="M12.3,339.1V332c0-3.6-2.5-6.5-5.7-6.5S1,328.4,1,332v7.1H12.3z"/>
<path class="st7" d="M0,332c0-4.2,3-7.6,6.7-7.6s6.7,3.4,6.7,7.6v8.2H0V332z M11.4,332c0-3-2.1-5.4-4.7-5.4S2,329,2,332v6h9.4V332z"
	/>
<path class="st3" d="M12.3,332v73l0,0v1.1c0,3.4,2.2,6.1,5,6.5h53c-2.8-0.4-5-3.1-5-6.5v-1.5l0,0V332c0-3.4-2.2-6.1-5-6.5
	c-1.6,0-50.4,0-52.9,0C10.1,325.9,12.3,328.7,12.3,332z"/>
<path d="M17.3,413.7c-3.4-0.4-5.9-3.7-5.9-7.6V332c0.1-2.6-1.6-4.8-4.1-5.4l0.1-2.3h53c3.4,0.5,5.9,3.7,5.9,7.6v74
	c-0.1,2.6,1.6,4.9,4.2,5.4l-0.1,2.3L17.3,413.7L17.3,413.7z M66.2,411.4c-1.2-1.5-1.9-3.4-1.9-5.3v-0.4l0,0V332
	c0.1-2.5-1.6-4.8-4.1-5.3H11.4c1.2,1.5,1.9,3.4,1.9,5.3v71.8l0,0v2.2c-0.1,2.6,1.6,4.8,4.1,5.4H66.2L66.2,411.4z"/>
<path d="M0,340h2v-8c0-3,2.1-5.4,4.7-5.4s4.7,2.4,4.7,5.4h2c0-4.2-3-7.6-6.7-7.6S0,327.8,0,332V340z"/>
<path d="M17.5,413.7c3.3,0,6.3-3.6,6.3-7.6V402h-2v4.1c0,2.8-2.1,5.4-4.4,5.4L17.5,413.7z"/>
<rect x="60.2" y="321" class="st3" width="13.1" height="97.3"/>
<path class="st3" d="M14.6,418.3c-1.1,0.2,65.6-0.8,65.6-0.8v-9.3c0,0-63.4-10.7-64.1-8.5C15.4,402,19.2,417.5,14.6,418.3z"/>
<rect x="8.4" y="405.2" class="st3" width="12.4" height="10"/>
<rect x="22.6" y="342.6" class="st8" width="26" height="2.5"/>
<rect x="22.6" y="350.9" class="st8" width="34.8" height="2.5"/>
<rect x="22.6" y="359.1" class="st8" width="34.8" height="2.5"/>
<rect x="22.6" y="367.4" class="st8" width="34.8" height="2.5"/>
<rect x="66.2" y="350.9" class="st8" width="5.7" height="2.5"/>
<rect x="66.2" y="359.1" class="st8" width="5.7" height="2.5"/>
<rect x="66.2" y="367.4" class="st8" width="5.7" height="2.5"/>
<polyline class="st9" points="88.7,463.9 69.1,397.9 49.5,463.9 "/>
<circle class="st10" cx="69.1" cy="395.1" r="7.4"/>
<line class="st10" x1="69.1" y1="378.9" x2="69.1" y2="387.7"/>
<path class="st11" d="M87,426.9c-10.4,9.2-26.1,9.1-36.4-0.2"/>
<path d="M470.1,513h-11.8l-0.9-4c-1.1-0.2-2.2-0.5-3.3-0.8l-2.8,3.1l-10.2-5.9l1.3-3.9c-0.8-0.8-1.6-1.5-2.4-2.4l-4.1,1.3l-5.9-10.2
	l3.3-3c-0.3-1-0.5-1.9-0.7-2.9l-4.6-1v-11.7l4.9-1c0.2-0.8,0.4-1.6,0.7-2.5l-3.9-3.5l5.9-10.2l5.3,1.7c0.5-0.5,1-1,1.5-1.4l-1.8-5.5
	l10.2-5.9l4,4.5c0.5-0.2,1.1-0.3,1.6-0.4l1.3-6.1h11.7l1.3,6.1c0.5,0.1,0.9,0.2,1.4,0.4l4.3-4.8l10.2,5.9l-1.9,5.9
	c0.4,0.3,0.7,0.7,1.1,1l6.1-2l5.9,10.2l-4.4,3.9c0.2,0.6,0.4,1.1,0.5,1.7l5.9,1.3v11.7l-5.2,1.1c-0.1,0.8-0.3,1.5-0.5,2.2l4,3.7
	l-5.8,10.2l-4.6-1.5c-0.6,0.7-1.2,1.4-1.9,2l1.5,4.6l-10.2,5.9l-2.9-3.1c-1,0.4-2.1,0.7-3.1,1L470.1,513z M460.7,510.1h7l0.8-3.8
	l0.9-0.2c1.5-0.3,3-0.8,4.5-1.4l0.9-0.4l2.7,2.9l6.1-3.5l-1.3-4.1l0.7-0.6c1-1,2-2,2.9-3.2l0.6-0.8l4.2,1.4l3.5-6.1l-3.6-3.3
	l0.3-0.9c0.4-1.2,0.6-2.5,0.8-3.7l0.1-1l4.9-1v-7l-5.4-1.1l-0.2-0.9c-0.3-1.1-0.6-2.2-1-3.2l-0.4-0.9l4.1-3.7l-3.5-6.1l-5.6,1.8
	l-0.6-0.7c-0.7-0.7-1.4-1.5-2.2-2.1l-0.7-0.6l1.8-5.5l-6.1-3.5l-4,4.4L472,451c-1-0.3-1.9-0.6-2.9-0.8l-0.9-0.2l-1.2-5.6h-7
	l-1.2,5.6l-0.9,0.2c-1,0.2-2.1,0.5-3.1,0.8l-0.9,0.3l-3.7-4.1l-6.1,3.5l1.7,5.1l-0.7,0.6c-0.9,0.8-1.8,1.6-2.6,2.5l-0.6,0.7
	l-4.8-1.6l-3.5,6.1l3.6,3.3l-0.3,0.9c-0.5,1.3-0.9,2.6-1.2,3.9l-0.2,0.9l-4.4,0.9v7l4.2,0.9l0.2,1c0.3,1.5,0.6,3,1.1,4.4l0.3,0.9
	l-3,2.7l3.5,6.1l3.7-1.2l0.6,0.7c1,1.2,2.2,2.4,3.4,3.4l0.8,0.6l-1.1,3.5l6.1,3.5l2.5-2.8l0.9,0.3c1.5,0.5,3.1,0.9,4.8,1.2l1,0.2
	L460.7,510.1z"/>
<path class="st7" d="M464,495.8c-4.5,0-8.9-1.6-12.2-4.6l12.9-12.9h17.9C481.9,488.1,473.8,495.8,464,495.8z"/>
<path class="st3" d="M465.1,475.5v-16.8c9.1,0.5,16.5,7.7,17.3,16.8H465.1z"/>
<path class="st7" d="M464,495.8c-4.5,0-8.9-1.6-12.2-4.6l12.9-12.9h17.9C481.9,488.1,473.8,495.8,464,495.8z"/>
<path class="st2" d="M465.1,475.5v-16.8c9.1,0.5,16.5,7.7,17.3,16.8H465.1z"/>
<path d="M463.9,501.1c-5.8,0-11.5-2.1-15.8-6l1.9-2.2c8.6,7.7,21.9,7,29.7-1.6c7.7-8.6,7-21.9-1.6-29.7c-3.6-3.2-8.2-5.1-13.1-5.3
	l0.1-2.9c13.2,0.7,23.3,11.9,22.6,25C487,491.1,476.6,501.1,463.9,501.1L463.9,501.1z"/>
<path d="M459.3,457v18.3l-12.8,13.1c-6.2-9.6-3.4-22.4,6.2-28.6C454.7,458.5,457,457.6,459.3,457 M462.2,453.7
	c-13,0.9-22.8,12.2-21.9,25.2c0.4,5.2,2.4,10.1,5.9,14l16-16.3V453.7L462.2,453.7z"/>
<path class="st12" d="M652.8,556.8v30.3c1.2,29.8-22,54.9-51.8,56.2s-54.9-22-56.2-51.8c-0.1-1.5-0.1-2.9,0-4.4v-54.7h-0.2v-59.1
	c0.5-45.2-35.7-82.2-80.9-82.7s-82.2,35.7-82.7,80.9c0,0.6,0,1.2,0,1.8v32.3h27.9v-32.3c-1.2-29.8,22-54.9,51.8-56.2
	c29.8-1.2,54.9,22,56.2,51.8c0.1,1.5,0.1,2.9,0,4.4V588h0.2c0.2,45.2,37.1,81.6,82.3,81.4s81.6-37.1,81.4-82.3v-30.3L652.8,556.8
	L652.8,556.8z"/>
<path class="st4" d="M395.3,590c23.9,0,43.3-19.4,43.3-43.3s-19.4-43.3-43.3-43.3S352,522.8,352,546.7l0,0
	C352,570.7,371.4,590,395.3,590z"/>
<rect x="393.7" y="469.9" width="3.1" height="51.1"/>
<path d="M394,463.7c0.3-2.1,0.7-4.2,1.2-6.3l3,0.7c-0.5,2-0.8,4-1.1,6L394,463.7z M396.9,451.2c0.7-2,1.5-4,2.3-6l2.9,1.3
	c-0.8,1.9-1.6,3.8-2.2,5.7L396.9,451.2z M402.1,439.5c1-1.9,2.2-3.7,3.4-5.5l2.6,1.8c-1.1,1.7-2.2,3.4-3.2,5.2L402.1,439.5z
	 M409.4,428.9c1.4-1.6,2.8-3.2,4.3-4.8l2.2,2.2c-1.4,1.4-2.8,3-4.1,4.5L409.4,428.9z M418.4,419.8c1.6-1.4,3.4-2.7,5.1-3.9l1.8,2.6
	c-1.7,1.2-3.3,2.4-4.9,3.7L418.4,419.8z M428.9,412.6c1.9-1,3.8-2,5.7-2.9l1.3,2.9c-1.9,0.8-3.7,1.8-5.5,2.7L428.9,412.6z
	 M440.6,407.4c2-0.7,4.1-1.3,6.2-1.8l0.7,3c-2,0.5-4,1-5.9,1.7L440.6,407.4z M453.1,404.4c2.1-0.3,4.2-0.5,6.4-0.6l0.1,3.1
	c-2,0.1-4.1,0.3-6.1,0.6L453.1,404.4z M465.7,406.9l0.1-3.1c2.1,0.1,4.3,0.3,6.4,0.6l-0.4,3.1C469.8,407.2,467.7,407,465.7,406.9
	L465.7,406.9z M477.8,408.5l0.7-3c2.1,0.5,4.1,1.1,6.2,1.7l-1,3C481.8,409.6,479.8,409,477.8,408.5L477.8,408.5z M489.4,412.4
	l1.3-2.9c1.9,0.9,3.9,1.8,5.7,2.9l-1.5,2.7C493.1,414.2,491.3,413.3,489.4,412.4L489.4,412.4z M500.1,418.4l1.8-2.6
	c1.8,1.2,3.5,2.5,5.1,3.9l-2,2.4C503.4,420.8,501.8,419.5,500.1,418.4z M509.6,426.1l2.2-2.2c1.5,1.5,3,3.1,4.3,4.7l-2.4,2
	C512.4,429.1,511,427.6,509.6,426.1L509.6,426.1z M517.4,435.5l2.6-1.8c1.2,1.8,2.4,3.6,3.4,5.4l-2.7,1.5
	C519.6,438.9,518.5,437.2,517.4,435.5L517.4,435.5z M523.4,446.2l2.8-1.3c0.9,1.9,1.7,3.9,2.3,6l-3,1
	C525,449.9,524.2,448,523.4,446.2L523.4,446.2z M527.3,457.8l3-0.7c0.5,2.1,0.9,4.2,1.2,6.3l-3.1,0.4
	C528.2,461.8,527.8,459.8,527.3,457.8z M529.1,469.9l3.1-0.2c0.1,1.2,0.1,2.4,0.1,3.6v2.8h-3.2v-2.8
	C529.1,472.1,529.1,471,529.1,469.9L529.1,469.9z M529.2,538.7v-6.3h3.1v6.3H529.2z M529.2,526.2v-6.3h3.1v6.3H529.2z M529.2,513.7
	v-6.3h3.1v6.3H529.2z M529.2,501.1v-6.3h3.1v6.3H529.2z M529.2,488.6v-6.3h3.1v6.3H529.2z"/>
<polygon class="st1" points="665.1,475.2 665.1,488.9 665.1,502.5 717.5,502.5 726.1,488.9 717.5,475.2 "/>
<rect x="661" y="456.7" class="st3" width="12.2" height="96"/>
<path d="M674.8,553h-15.4v-98.6h15.4V553z M662.6,550.5h8.9V459h-8.9V550.5z"/>
<polygon class="st2" points="668.1,489.8 668.1,476.1 668.1,462.5 615.6,462.5 607.1,476.1 615.6,489.8 "/>
<rect x="625.3" y="473.8" width="29.8" height="4.6"/>
<rect x="676.8" y="486.5" width="29.8" height="4.6"/>
<rect x="650.5" y="545.7" class="st3" width="32.6" height="6.6"/>
<path d="M681.4,547.4v3.2h-29.2v-3.2H681.4 M684.8,544h-36v10h36V544z"/>
<rect x="528.9" y="544.4" width="3.1" height="35"/>
<path class="st7" d="M622.8,589.1c0,13.1-10.6,23.7-23.7,23.7s-23.7-10.6-23.7-23.7c0-13.1,10.6-23.7,23.7-23.7l0,0
	C612.2,565.4,622.8,576,622.8,589.1z"/>
<line class="st0" x1="590.8" y1="580.7" x2="607.5" y2="597.4"/>
<rect x="596.9" y="577.3" transform="matrix(0.7071 -0.7071 0.7071 0.7071 -241.0679 596.1945)" class="st13" width="4.5" height="23.6"/>
<line class="st0" x1="607.5" y1="580.7" x2="590.8" y2="597.4"/>
<rect x="587.3" y="586.8" transform="matrix(0.7071 -0.7071 0.7071 0.7071 -241.0451 596.1587)" class="st13" width="23.6" height="4.5"/>
<path class="st14" d="M393.8,520c0.6,0,0.9,0,1.5,0c14.6,0,26.5,11.9,26.5,26.5S409.9,573,395.3,573s-26.5-11.9-26.5-26.5
	c0.2-7,3-13.6,8-18.5"/>
<polyline class="st14" points="367.2,527.6 378.2,526.4 379.4,537.4 "/>
<rect x="754.1" y="223.3" width="46.2" height="4"/>
<rect x="754.1" y="233.2" width="33.3" height="4"/>
<polygon points="741.3,235.2 736.2,230.4 738.9,227.5 740.9,229.3 747.3,221.3 750.4,223.8 "/>
<rect x="754.1" y="247.6" width="46.2" height="4"/>
<rect x="754.1" y="257.5" width="33.3" height="4"/>
<polygon points="741.3,259.5 736.2,254.7 738.9,251.8 740.9,253.6 747.3,245.5 750.4,248 "/>
<g class="st15">
	<path d="M163.1,285c-0.9,2.1-2.3,3.7-4,4.9c-1.7,1.2-3.6,1.8-5.8,1.8c-2.2,0-4.1-0.6-5.8-1.8c-1.7-1.2-3-2.8-4-4.9
		c-1-2.1-1.4-4.5-1.4-7.2s0.5-5.1,1.4-7.2c1-2.1,2.3-3.7,4-4.9c1.7-1.2,3.6-1.7,5.8-1.7c2.2,0,4.1,0.6,5.8,1.8c1.7,1.2,3,2.9,4,4.9
		c0.9,2.1,1.4,4.5,1.4,7.1C164.5,280.5,164,282.9,163.1,285z M158.5,270.9c-1.2-1.7-2.9-2.6-5.1-2.6c-2.3,0-4,0.9-5.2,2.6
		c-1.2,1.8-1.8,4.1-1.8,6.9c0,2.9,0.6,5.2,1.8,7s3,2.6,5.2,2.6c2.2,0,4-0.9,5.2-2.6c1.2-1.7,1.8-4.1,1.8-6.9
		C160.3,274.9,159.7,272.6,158.5,270.9z"/>
	<path d="M183.3,272.9c0,1.3-0.2,2.5-0.5,3.6c-0.4,1.1-0.9,2-1.6,2.8c-0.7,0.8-1.6,1.4-2.7,1.8c-1,0.4-2.3,0.6-3.8,0.6H172v5.9
		l0.9,0.2c0.1,0,0.2,0.1,0.3,0.1c0.1,0,0.1,0,0.2,0l0.2,0c0.5,0.1,0.8,0.5,0.8,1.2v2.2h-8.7v-2.2c0-0.6,0.3-1,0.8-1.2l0.2,0l0.5-0.1
		l0.9-0.2V268l-0.9-0.2c-0.1,0-0.2,0-0.3-0.1c-0.1,0-0.1,0-0.2,0l-0.2,0c-0.5-0.2-0.8-0.5-0.8-1.2v-2.2h9.1c1.5,0,2.7,0.2,3.8,0.6
		c1,0.4,1.9,1,2.7,1.8c0.7,0.8,1.2,1.6,1.6,2.7C183.1,270.5,183.3,271.6,183.3,272.9z M179.2,272.9c0-0.7-0.1-1.4-0.3-2
		c-0.2-0.6-0.5-1.1-0.8-1.5c-0.3-0.4-0.8-0.7-1.4-0.9c-0.5-0.2-1.2-0.3-2-0.3H172v9.7h2.7c0.8,0,1.4-0.1,2-0.3c0.6-0.2,1-0.6,1.4-1
		c0.4-0.4,0.6-0.9,0.8-1.6C179.1,274.4,179.2,273.7,179.2,272.9z"/>
	<path d="M202.6,270.7h-1.7c-0.4,0-0.6-0.2-0.7-0.7c-0.1-0.4-0.1-0.9-0.2-1.5h-4.5v19.2l0.9,0.2c0.1,0,0.2,0.1,0.3,0.1
		c0.1,0,0.1,0,0.2,0l0.2,0c0.5,0.1,0.8,0.5,0.8,1.2v2.2h-8.7v-2.2c0-0.6,0.3-1,0.8-1.2l0.2,0c0.1,0,0.1,0,0.2,0c0.1,0,0.2,0,0.3-0.1
		l0.9-0.2v-19.3h-4.5c0,0.7-0.1,1.2-0.2,1.6c-0.1,0.5-0.3,0.7-0.7,0.7h-1.8v-6.4h18.4V270.7z"/>
	<path d="M211.5,267.7c-0.1,0-0.1,0-0.2,0c-0.1,0-0.2,0.1-0.3,0.1l-0.9,0.2v19.7l0.9,0.2c0.1,0,0.2,0.1,0.3,0.1c0.1,0,0.1,0,0.2,0
		l0.2,0c0.5,0.1,0.8,0.5,0.8,1.2v2.2h-8.7v-2.2c0-0.6,0.3-1,0.8-1.2l0.2,0l0.5-0.1l0.9-0.2V268l-0.9-0.2c-0.1,0-0.2,0-0.3-0.1
		c-0.1,0-0.1,0-0.2,0l-0.2,0c-0.5-0.2-0.8-0.5-0.8-1.2v-2.2h8.7v2.2c0,0.6-0.3,1-0.8,1.2L211.5,267.7z"/>
	<path d="M241.2,267.7c-0.1,0-0.1,0-0.2,0c-0.1,0-0.2,0.1-0.3,0.1l-0.9,0.2v19.7l0.9,0.2c0.1,0,0.2,0.1,0.3,0.1c0.1,0,0.1,0,0.2,0
		l0.2,0c0.5,0.1,0.8,0.5,0.8,1.2v2.2h-8.7v-2.2c0-0.6,0.3-1,0.8-1.2l2-0.3v-13.8l0-1.1c0-0.2,0-0.6,0.1-1.2l-6.7,15.4
		c-0.2,0.4-0.4,0.7-0.6,0.8c-0.3,0.2-0.5,0.3-0.9,0.3h-0.5c-0.3,0-0.6-0.1-0.9-0.3c-0.2-0.2-0.4-0.5-0.6-0.8l-6.7-15.4l0.1,1.2
		c0,0.3,0,0.6,0,1.1v13.8l2,0.3c0.5,0.1,0.8,0.5,0.8,1.2v2.2h-8.7v-2.2c0-0.6,0.3-1,0.8-1.2l0.2,0l0.5-0.1l0.9-0.2V268l-0.9-0.2
		c-0.1,0-0.2,0-0.3-0.1c-0.1,0-0.1,0-0.2,0l-0.2,0c-0.5-0.2-0.8-0.5-0.8-1.2v-2.2h5.4l0.5,0c0.1,0,0.2,0,0.4,0.1
		c0.1,0,0.2,0.1,0.3,0.3c0.1,0.1,0.2,0.3,0.3,0.4l6.6,15c0.1,0.3,0.2,0.5,0.3,0.7c0.1,0.2,0.1,0.4,0.2,0.5l0.5,1.3l0.4-1.3
		c0.2-0.5,0.3-0.9,0.5-1.3l6.5-15c0.1-0.2,0.2-0.4,0.2-0.4c0.1-0.2,0.2-0.2,0.3-0.3c0.2,0,0.3-0.1,0.4-0.1l0.5,0h5.4v2.2
		c0,0.6-0.3,1-0.8,1.2L241.2,267.7z"/>
	<path d="M251.2,267.7c-0.1,0-0.1,0-0.2,0c-0.1,0-0.2,0.1-0.3,0.1l-0.9,0.2v19.7l0.9,0.2c0.1,0,0.2,0.1,0.3,0.1c0.1,0,0.1,0,0.2,0
		l0.2,0c0.5,0.1,0.8,0.5,0.8,1.2v2.2h-8.7v-2.2c0-0.6,0.3-1,0.8-1.2l0.2,0l0.5-0.1l0.9-0.2V268l-0.9-0.2c-0.1,0-0.2,0-0.3-0.1
		c-0.1,0-0.1,0-0.2,0l-0.2,0c-0.5-0.2-0.8-0.5-0.8-1.2v-2.2h8.7v2.2c0,0.6-0.3,1-0.8,1.2L251.2,267.7z"/>
	<path d="M267.4,287.4c0.1-0.8,0.1-1.5,0.2-1.9s0.1-0.6,0.1-0.7c0.1-0.5,0.3-0.7,0.7-0.7h1.6v7.3h-16.8v-2c0-0.3,0-0.5,0.1-0.7
		c0.1-0.3,0.2-0.5,0.3-0.7l11.4-19.7h-8.4c-0.1,0.9-0.1,1.6-0.2,2c-0.1,0.4-0.1,0.6-0.1,0.7c-0.1,0.5-0.3,0.7-0.7,0.7H254l0-7.4
		h16.3v1.9c0,0.6-0.1,1.1-0.4,1.6l-11.3,19.7H267.4z"/>
	<path d="M279.2,267.7c-0.1,0-0.1,0-0.2,0c-0.1,0-0.2,0.1-0.3,0.1l-0.9,0.2v19.7l0.9,0.2c0.1,0,0.2,0.1,0.3,0.1c0.1,0,0.1,0,0.2,0
		l0.2,0c0.5,0.1,0.8,0.5,0.8,1.2v2.2h-8.7v-2.2c0-0.6,0.3-1,0.8-1.2l0.2,0l0.5-0.1l0.9-0.2V268l-0.9-0.2c-0.1,0-0.2,0-0.3-0.1
		c-0.1,0-0.1,0-0.2,0l-0.2,0c-0.5-0.2-0.8-0.5-0.8-1.2v-2.2h8.7v2.2c0,0.6-0.3,1-0.8,1.2L279.2,267.7z"/>
	<path d="M304.7,266.5c0,0.6-0.3,1-0.8,1.2l-0.2,0c-0.1,0-0.1,0-0.2,0c-0.1,0-0.2,0.1-0.3,0.1l-0.9,0.2v23.4h-2.1
		c-0.3,0-0.5-0.1-0.8-0.2c-0.2-0.1-0.4-0.3-0.6-0.7l-11.5-18c0,0.6,0.1,0.9,0.1,1.2l0,1.1v12.9l2,0.3c0.5,0.1,0.8,0.5,0.8,1.2v2.2
		h-8.7v-2.2c0-0.6,0.3-1,0.8-1.2l0.2,0l0.5-0.1l0.9-0.2V268l-0.9-0.2c-0.1,0-0.2,0-0.3-0.1c-0.1,0-0.1,0-0.2,0l-0.2,0
		c-0.5-0.2-0.8-0.5-0.8-1.2v-2.2h4.5l0.5,0c0.1,0,0.3,0,0.3,0.1c0.1,0,0.2,0.1,0.3,0.2l0.3,0.4l11.6,18.1l-0.1-1.3
		c0-0.3,0-0.7,0-1.2V268l-2-0.3c-0.5-0.2-0.8-0.5-0.8-1.2v-2.2h8.7V266.5z"/>
	<path d="M325,288.7c-0.6,0.5-1.2,1-1.7,1.3c-0.6,0.4-1.3,0.7-1.9,0.9c-0.7,0.3-1.5,0.4-2.2,0.5c-0.9,0.1-1.7,0.2-2.5,0.2
		c-1.6,0-3-0.3-4.4-1c-1.4-0.7-2.6-1.6-3.5-2.9c-1-1.3-1.8-2.7-2.3-4.4c-0.5-1.7-0.8-3.6-0.8-5.6c0-2.1,0.3-4,0.8-5.6
		c0.5-1.7,1.3-3.2,2.3-4.4c1-1.2,2.2-2.1,3.6-2.9c1.3-0.6,2.9-1,4.5-1h0.2c2.3,0,4.9,0.7,7.8,2v6.9h-1.8c-0.4,0-0.6-0.2-0.7-0.7
		c-0.1-0.4-0.2-1.3-0.3-2.9c-1.5-0.6-3.2-0.9-5.2-0.9c-1.1,0-2,0.2-2.9,0.7c-0.9,0.4-1.6,1.1-2.3,1.9c-0.6,0.9-1.1,1.9-1.4,3
		c-0.3,1.2-0.5,2.5-0.5,3.9c0,1.6,0.2,3,0.5,4.2c0.4,1.3,0.9,2.3,1.5,3.1c0.7,0.8,1.4,1.5,2.3,1.9c0.9,0.5,1.9,0.7,2.9,0.7
		c0.9,0,1.7-0.1,2.4-0.3c0.7-0.2,1.3-0.5,2-0.9v-4.9h-2.7c-0.3,0-0.5-0.1-0.6-0.3c-0.1-0.2-0.2-0.4-0.2-0.6v-2.9h7.3V288.7z"/>
	<path d="M349.6,271.4h-1.8c-0.4,0-0.6-0.2-0.7-0.7c-0.1-1-0.2-1.8-0.2-2.4h-7.1v7.5h7.5v3.9h-7.5v7.6h7.1c0-0.6,0.1-1.4,0.2-2.4
		c0.1-0.5,0.3-0.7,0.7-0.7h1.8v7.2h-16.2v-2.2c0-0.6,0.3-1,0.8-1.2l0.2,0c0.1,0,0.1,0,0.2,0c0.1,0,0.2,0,0.3-0.1l0.9-0.2V268
		l-0.9-0.2c-0.1,0-0.2,0-0.3-0.1c-0.1,0-0.1,0-0.2,0l-0.2,0c-0.5-0.2-0.8-0.5-0.8-1.2v-2.2h16.2V271.4z"/>
	<path d="M374.1,266.5c0,0.6-0.3,1-0.8,1.2l-0.2,0c-0.1,0-0.1,0-0.2,0c-0.1,0-0.2,0.1-0.3,0.1l-0.9,0.2v23.4h-2.1
		c-0.3,0-0.5-0.1-0.8-0.2c-0.2-0.1-0.4-0.3-0.6-0.7l-11.5-18c0,0.6,0.1,0.9,0.1,1.2l0,1.1v12.9l2,0.3c0.5,0.1,0.8,0.5,0.8,1.2v2.2
		h-8.7v-2.2c0-0.6,0.3-1,0.8-1.2l0.2,0l0.5-0.1l0.9-0.2V268l-0.9-0.2c-0.1,0-0.2,0-0.3-0.1c-0.1,0-0.1,0-0.2,0l-0.2,0
		c-0.5-0.2-0.8-0.5-0.8-1.2v-2.2h4.5l0.5,0c0.1,0,0.3,0,0.3,0.1c0.1,0,0.2,0.1,0.3,0.2l0.3,0.4l11.6,18.1l-0.1-1.3
		c0-0.3,0-0.7,0-1.2V268l-2-0.3c-0.5-0.2-0.8-0.5-0.8-1.2v-2.2h8.7V266.5z"/>
	<path d="M391.4,271.4h-1.8c-0.4,0-0.6-0.2-0.7-0.7c-0.1-1-0.2-1.8-0.2-2.4h-7.1v7.5h7.5v3.9h-7.5v7.6h7.1c0-0.6,0.1-1.4,0.2-2.4
		c0.1-0.5,0.3-0.7,0.7-0.7h1.8v7.2h-16.2v-2.2c0-0.6,0.3-1,0.8-1.2l0.2,0c0.1,0,0.1,0,0.2,0c0.1,0,0.2,0,0.3-0.1l0.9-0.2V268
		l-0.9-0.2c-0.1,0-0.2,0-0.3-0.1c-0.1,0-0.1,0-0.2,0l-0.2,0c-0.5-0.2-0.8-0.5-0.8-1.2v-2.2h16.2V271.4z"/>
	<path d="M412.4,289.2v2.2h-4.1c-0.4,0-0.7-0.1-0.9-0.3c-0.2-0.2-0.4-0.4-0.6-0.8l-4.6-8.7c-0.2-0.3-0.4-0.5-0.6-0.7
		c-0.2-0.1-0.5-0.2-0.9-0.2h-1.6v6.9l0.9,0.2c0.1,0,0.2,0.1,0.3,0.1c0.1,0,0.1,0,0.2,0l0.2,0c0.5,0.1,0.8,0.5,0.8,1.2v2.2h-8.7v-2.2
		c0-0.6,0.3-1,0.8-1.2l0.2,0l0.5-0.1l0.9-0.2V268l-0.9-0.2c-0.1,0-0.2,0-0.3-0.1c-0.1,0-0.1,0-0.2,0l-0.2,0
		c-0.5-0.2-0.8-0.5-0.8-1.2v-2.2h8.8c1.5,0,2.8,0.2,3.9,0.6c1,0.4,1.9,0.9,2.6,1.6c0.7,0.7,1.2,1.6,1.5,2.5c0.3,1,0.5,2,0.5,3.1
		c0,0.9-0.1,1.7-0.3,2.6c-0.2,0.7-0.5,1.5-0.9,2.2c-0.4,0.6-0.9,1.2-1.5,1.7c-0.6,0.5-1.3,0.9-2.1,1.2c0.5,0.4,1,0.9,1.3,1.6
		l3.5,6.3l0.9,0.2c0.1,0,0.2,0.1,0.3,0.1c0.1,0,0.2,0,0.2,0l0.2,0C412.2,288.1,412.4,288.5,412.4,289.2z M404.9,275.8
		c0.3-0.4,0.6-0.9,0.8-1.5c0.2-0.6,0.3-1.2,0.3-1.9c0-1.4-0.4-2.4-1.1-3.2c-0.7-0.7-1.8-1.1-3.4-1.1h-2.4v9h2.4c0.7,0,1.4-0.1,2-0.4
		C404,276.6,404.5,276.2,404.9,275.8z"/>
	<path d="M432.9,288.7c-0.6,0.5-1.2,1-1.7,1.3c-0.6,0.4-1.3,0.7-1.9,0.9c-0.7,0.3-1.5,0.4-2.2,0.5c-0.9,0.1-1.7,0.2-2.5,0.2
		c-1.6,0-3-0.3-4.4-1c-1.4-0.7-2.6-1.6-3.5-2.9c-1-1.3-1.8-2.7-2.3-4.4c-0.5-1.7-0.8-3.6-0.8-5.6c0-2.1,0.3-4,0.8-5.6
		c0.5-1.7,1.3-3.2,2.3-4.4c1-1.2,2.2-2.1,3.6-2.9c1.3-0.6,2.9-1,4.5-1h0.2c2.3,0,4.9,0.7,7.8,2v6.9h-1.8c-0.4,0-0.6-0.2-0.7-0.7
		c-0.1-0.4-0.2-1.3-0.3-2.9c-1.5-0.6-3.2-0.9-5.2-0.9c-1.1,0-2,0.2-2.9,0.7c-0.9,0.4-1.6,1.1-2.3,1.9c-0.6,0.9-1.1,1.9-1.4,3
		c-0.3,1.2-0.5,2.5-0.5,3.9c0,1.6,0.2,3,0.5,4.2c0.4,1.3,0.9,2.3,1.5,3.1c0.7,0.8,1.4,1.5,2.3,1.9c0.9,0.5,1.9,0.7,2.9,0.7
		c0.9,0,1.7-0.1,2.4-0.3c0.7-0.2,1.3-0.5,2-0.9v-4.9h-2.7c-0.3,0-0.5-0.1-0.6-0.3c-0.1-0.2-0.2-0.4-0.2-0.6v-2.9h7.3V288.7z"/>
	<path d="M455.2,266.5c0,0.6-0.3,1-0.8,1.2l-0.2,0c-0.1,0-0.1,0-0.2,0c-0.1,0-0.2,0.1-0.3,0.1l-0.9,0.2l-6.2,12.9v6.8l0.9,0.2
		c0.1,0,0.2,0.1,0.3,0.1c0.1,0,0.1,0,0.2,0l0.2,0c0.5,0.1,0.8,0.5,0.8,1.2v2.2h-8.7v-2.2c0-0.6,0.3-1,0.8-1.2c0.1,0,0.2,0,0.2,0
		l0.5-0.1l0.9-0.2v-6.8l-6.2-12.9l-0.9-0.2c-0.1,0-0.2,0-0.3-0.1c-0.1,0-0.1,0-0.2,0l-0.2,0c-0.5-0.2-0.8-0.5-0.8-1.2v-2.2h8.2v2.2
		c0,0.6-0.3,1-0.8,1.2l-0.1,0l-0.3,0.1l-0.4,0.1l2.9,6.6c0.2,0.4,0.4,0.9,0.6,1.5c0.1,0.3,0.2,0.5,0.3,0.8c0.1,0.3,0.1,0.5,0.2,0.6
		c0.1-0.4,0.3-0.9,0.5-1.4c0.2-0.6,0.4-1.1,0.6-1.5l2.9-6.6l-0.5-0.1c-0.1,0-0.1,0-0.2-0.1c0,0-0.1,0-0.1,0c0,0-0.1,0-0.2,0
		c-0.5-0.2-0.8-0.5-0.8-1.2v-2.2h8.2V266.5z"/>
	<path d="M481.1,272.9c0,1.3-0.2,2.5-0.5,3.6s-0.9,2-1.6,2.8c-0.7,0.8-1.6,1.4-2.7,1.8c-1,0.4-2.3,0.6-3.8,0.6h-2.7v5.9l0.9,0.2
		c0.1,0,0.2,0.1,0.3,0.1c0.1,0,0.1,0,0.2,0l0.2,0c0.5,0.1,0.8,0.5,0.8,1.2v2.2h-8.7v-2.2c0-0.6,0.3-1,0.8-1.2l0.2,0l0.5-0.1l0.9-0.2
		V268l-0.9-0.2c-0.1,0-0.2,0-0.3-0.1c-0.1,0-0.1,0-0.2,0l-0.2,0c-0.5-0.2-0.8-0.5-0.8-1.2v-2.2h9.1c1.5,0,2.7,0.2,3.8,0.6
		c1,0.4,1.9,1,2.7,1.8c0.7,0.8,1.2,1.6,1.6,2.7C480.9,270.5,481.1,271.6,481.1,272.9z M476.9,272.9c0-0.7-0.1-1.4-0.3-2
		c-0.2-0.6-0.5-1.1-0.8-1.5c-0.3-0.4-0.8-0.7-1.4-0.9c-0.5-0.2-1.2-0.3-2-0.3h-2.7v9.7h2.7c0.8,0,1.4-0.1,2-0.3c0.6-0.2,1-0.6,1.4-1
		c0.4-0.4,0.6-0.9,0.8-1.6C476.9,274.4,476.9,273.7,476.9,272.9z"/>
	<path d="M498.4,271.4h-1.8c-0.4,0-0.6-0.2-0.7-0.7c-0.1-1-0.2-1.8-0.2-2.4h-7.1v7.5h7.5v3.9h-7.5v7.6h7.1c0-0.6,0.1-1.4,0.2-2.4
		c0.1-0.5,0.3-0.7,0.7-0.7h1.8v7.2h-16.2v-2.2c0-0.6,0.3-1,0.8-1.2l0.2,0c0.1,0,0.1,0,0.2,0c0.1,0,0.2,0,0.3-0.1l0.9-0.2V268
		l-0.9-0.2c-0.1,0-0.2,0-0.3-0.1c-0.1,0-0.1,0-0.2,0l-0.2,0c-0.5-0.2-0.8-0.5-0.8-1.2v-2.2h16.2V271.4z"/>
	<path d="M519.4,289.2v2.2h-4.1c-0.4,0-0.7-0.1-0.9-0.3c-0.2-0.2-0.4-0.4-0.6-0.8l-4.6-8.7c-0.2-0.3-0.4-0.5-0.6-0.7
		c-0.2-0.1-0.5-0.2-0.9-0.2h-1.6v6.9l0.9,0.2c0.1,0,0.2,0.1,0.3,0.1c0.1,0,0.1,0,0.2,0l0.2,0c0.5,0.1,0.8,0.5,0.8,1.2v2.2h-8.7v-2.2
		c0-0.6,0.3-1,0.8-1.2l0.2,0l0.5-0.1l0.9-0.2V268l-0.9-0.2c-0.1,0-0.2,0-0.3-0.1c-0.1,0-0.1,0-0.2,0l-0.2,0
		c-0.5-0.2-0.8-0.5-0.8-1.2v-2.2h8.8c1.5,0,2.8,0.2,3.9,0.6c1,0.4,1.9,0.9,2.6,1.6c0.7,0.7,1.2,1.6,1.5,2.5c0.3,1,0.5,2,0.5,3.1
		c0,0.9-0.1,1.7-0.3,2.6c-0.2,0.7-0.5,1.5-0.9,2.2c-0.4,0.6-0.9,1.2-1.5,1.7c-0.6,0.5-1.3,0.9-2.1,1.2c0.5,0.4,1,0.9,1.3,1.6
		l3.5,6.3l0.9,0.2c0.1,0,0.2,0.1,0.3,0.1c0.1,0,0.2,0,0.2,0l0.2,0C519.2,288.1,519.4,288.5,519.4,289.2z M511.9,275.8
		c0.3-0.4,0.6-0.9,0.8-1.5c0.2-0.6,0.3-1.2,0.3-1.9c0-1.4-0.4-2.4-1.1-3.2c-0.7-0.7-1.8-1.1-3.4-1.1h-2.4v9h2.4c0.7,0,1.4-0.1,2-0.4
		C511,276.6,511.5,276.2,511.9,275.8z"/>
	<path d="M537.6,271.4h-1.8c-0.4,0-0.6-0.2-0.7-0.7c-0.1-1-0.2-1.8-0.2-2.4H527v8h7.7v4H527v7.4l0.9,0.2c0.1,0,0.2,0.1,0.3,0.1
		c0.1,0,0.1,0,0.2,0l0.2,0c0.5,0.1,0.8,0.5,0.8,1.2v2.2h-8.8v-2.2c0-0.6,0.3-1,0.8-1.2l0.2,0c0.1,0,0.1,0,0.2,0c0.1,0,0.2,0,0.3-0.1
		l0.9-0.2V268l-0.9-0.2c-0.1,0-0.2,0-0.3-0.1c-0.1,0-0.1,0-0.2,0l-0.2,0c-0.5-0.2-0.8-0.5-0.8-1.2v-2.2h17V271.4z"/>
	<path d="M559.5,285c-0.9,2.1-2.3,3.7-4,4.9c-1.7,1.2-3.6,1.8-5.8,1.8s-4.1-0.6-5.8-1.8c-1.7-1.2-3-2.8-4-4.9s-1.4-4.5-1.4-7.2
		s0.5-5.1,1.4-7.2s2.3-3.7,4-4.9c1.7-1.2,3.6-1.7,5.8-1.7c2.2,0,4.1,0.6,5.8,1.8c1.7,1.2,3,2.9,4,4.9c0.9,2.1,1.4,4.5,1.4,7.1
		C560.9,280.5,560.4,282.9,559.5,285z M554.9,270.9c-1.2-1.7-2.9-2.6-5.1-2.6c-2.3,0-4,0.9-5.2,2.6c-1.2,1.8-1.8,4.1-1.8,6.9
		c0,2.9,0.6,5.2,1.8,7s3,2.6,5.2,2.6s4-0.9,5.2-2.6c1.2-1.7,1.8-4.1,1.8-6.9C556.7,274.9,556.1,272.6,554.9,270.9z"/>
	<path d="M581.7,289.2v2.2h-4.1c-0.4,0-0.7-0.1-0.9-0.3c-0.2-0.2-0.4-0.4-0.6-0.8l-4.6-8.7c-0.2-0.3-0.4-0.5-0.6-0.7
		c-0.2-0.1-0.5-0.2-0.9-0.2h-1.6v6.9l0.9,0.2c0.1,0,0.2,0.1,0.3,0.1c0.1,0,0.1,0,0.2,0l0.2,0c0.5,0.1,0.8,0.5,0.8,1.2v2.2H562v-2.2
		c0-0.6,0.3-1,0.8-1.2l0.2,0l0.5-0.1l0.9-0.2V268l-0.9-0.2c-0.1,0-0.2,0-0.3-0.1c-0.1,0-0.1,0-0.2,0l-0.2,0
		c-0.5-0.2-0.8-0.5-0.8-1.2v-2.2h8.8c1.5,0,2.8,0.2,3.9,0.6c1,0.4,1.9,0.9,2.6,1.6c0.7,0.7,1.2,1.6,1.5,2.5c0.3,1,0.5,2,0.5,3.1
		c0,0.9-0.1,1.7-0.3,2.6c-0.2,0.7-0.5,1.5-0.9,2.2c-0.4,0.6-0.9,1.2-1.5,1.7c-0.6,0.5-1.3,0.9-2.1,1.2c0.5,0.4,1,0.9,1.3,1.6
		l3.5,6.3l0.9,0.2c0.1,0,0.2,0.1,0.3,0.1c0.1,0,0.2,0,0.2,0l0.2,0C581.5,288.1,581.7,288.5,581.7,289.2z M574.2,275.8
		c0.3-0.4,0.6-0.9,0.8-1.5c0.2-0.6,0.3-1.2,0.3-1.9c0-1.4-0.4-2.4-1.1-3.2c-0.7-0.7-1.8-1.1-3.4-1.1h-2.4v9h2.4c0.7,0,1.4-0.1,2-0.4
		C573.3,276.6,573.8,276.2,574.2,275.8z"/>
	<path d="M610.5,267.7c-0.1,0-0.1,0-0.2,0c-0.1,0-0.2,0.1-0.3,0.1l-0.9,0.2v19.7l0.9,0.2c0.1,0,0.2,0.1,0.3,0.1c0.1,0,0.1,0,0.2,0
		l0.2,0c0.5,0.1,0.8,0.5,0.8,1.2v2.2h-8.7v-2.2c0-0.6,0.3-1,0.8-1.2l2-0.3v-13.8l0-1.1c0-0.2,0-0.6,0.1-1.2l-6.7,15.4
		c-0.2,0.4-0.4,0.7-0.6,0.8c-0.3,0.2-0.5,0.3-0.9,0.3h-0.5c-0.3,0-0.6-0.1-0.9-0.3c-0.2-0.2-0.4-0.5-0.6-0.8l-6.7-15.4l0.1,1.2
		c0,0.3,0,0.6,0,1.1v13.8l2,0.3c0.5,0.1,0.8,0.5,0.8,1.2v2.2h-8.7v-2.2c0-0.6,0.3-1,0.8-1.2l0.2,0l0.5-0.1l0.9-0.2V268l-0.9-0.2
		c-0.1,0-0.2,0-0.3-0.1c-0.1,0-0.1,0-0.2,0l-0.2,0c-0.5-0.2-0.8-0.5-0.8-1.2v-2.2h5.4l0.5,0c0.1,0,0.2,0,0.4,0.1
		c0.1,0,0.2,0.1,0.3,0.3c0.1,0.1,0.2,0.3,0.3,0.4l6.6,15c0.1,0.3,0.2,0.5,0.3,0.7c0.1,0.2,0.1,0.4,0.2,0.5l0.5,1.3l0.4-1.3
		c0.2-0.5,0.3-0.9,0.5-1.3l6.5-15c0.1-0.2,0.2-0.4,0.2-0.4c0.1-0.2,0.2-0.2,0.3-0.3c0.2,0,0.3-0.1,0.4-0.1l0.5,0h5.4v2.2
		c0,0.6-0.3,1-0.8,1.2L610.5,267.7z"/>
	<path d="M636.2,289.5v1.9h-7.5v-1.9c0-0.4,0.2-0.8,0.6-1l0.6-0.3l-1.2-4.1H620l-1.2,4.1l0.6,0.3c0.4,0.2,0.6,0.6,0.6,1v1.9h-7.4
		v-1.9c0-0.4,0.2-0.8,0.6-1l1.7-0.9l7.5-23.4h4.2l7.5,23.4l1.7,0.9C636,288.7,636.2,289,636.2,289.5z M627.7,280.5l-2.5-8.4
		c-0.2-0.8-0.5-1.9-0.8-3.2l-0.3,1.2c-0.2,0.7-0.3,1.4-0.5,2.1l-2.5,8.4H627.7z"/>
	<path d="M660.7,266.5c0,0.6-0.3,1-0.8,1.2l-0.2,0c-0.1,0-0.1,0-0.2,0c-0.1,0-0.2,0.1-0.3,0.1l-0.9,0.2v23.4h-2.1
		c-0.3,0-0.5-0.1-0.8-0.2c-0.2-0.1-0.4-0.3-0.6-0.7l-11.5-18c0,0.6,0.1,0.9,0.1,1.2l0,1.1v12.9l2,0.3c0.5,0.1,0.8,0.5,0.8,1.2v2.2
		h-8.7v-2.2c0-0.6,0.3-1,0.8-1.2l0.2,0l0.5-0.1l0.9-0.2V268l-0.9-0.2c-0.1,0-0.2,0-0.3-0.1c-0.1,0-0.1,0-0.2,0l-0.2,0
		c-0.5-0.2-0.8-0.5-0.8-1.2v-2.2h4.5l0.5,0c0.1,0,0.3,0,0.3,0.1c0.1,0,0.2,0.1,0.3,0.2l0.3,0.4l11.6,18.1l-0.1-1.3
		c0-0.3,0-0.7,0-1.2V268l-2-0.3c-0.5-0.2-0.8-0.5-0.8-1.2v-2.2h8.7V266.5z"/>
	<path d="M677.3,272.1c-0.1-0.3-0.2-1.3-0.3-3c-1.6-0.6-3-0.9-4.2-0.9c-1.1,0-2,0.2-2.9,0.6c-0.9,0.5-1.6,1.1-2.2,1.9
		c-0.6,0.9-1.1,1.9-1.5,3c-0.4,1.2-0.5,2.5-0.5,4c0,1.5,0.2,2.9,0.5,4c0.4,1.3,0.9,2.3,1.4,3c0.6,0.8,1.3,1.4,2.1,1.9
		c0.8,0.4,1.6,0.6,2.6,0.6c0.6,0,1.1,0,1.5-0.1c0.5-0.1,0.9-0.2,1.3-0.3c0.3-0.1,0.7-0.4,1.1-0.6c0.3-0.2,0.6-0.5,1-1
		c0.1-0.1,0.2-0.2,0.3-0.3c0.1,0,0.2-0.1,0.4-0.1c0.2,0,0.4,0.1,0.6,0.3l1.6,2.2c-0.9,1.4-2,2.4-3.3,3.1c-1.3,0.7-2.9,1.1-4.7,1.1
		c-1.6,0-3-0.3-4.4-1c-1.3-0.7-2.5-1.6-3.4-2.9c-1-1.3-1.7-2.7-2.1-4.4c-0.5-1.7-0.7-3.5-0.7-5.5c0-2.1,0.3-4,0.8-5.6
		c0.5-1.7,1.3-3.1,2.3-4.3c1-1.3,2.2-2.2,3.6-2.9c1.4-0.7,2.9-1,4.6-1c1.9,0,4.2,0.7,6.9,2v6.9H678
		C677.7,272.8,677.4,272.6,677.3,272.1z"/>
	<path d="M697.4,271.4h-1.8c-0.4,0-0.6-0.2-0.7-0.7c-0.1-1-0.2-1.8-0.2-2.4h-7.1v7.5h7.5v3.9h-7.5v7.6h7.1c0-0.6,0.1-1.4,0.2-2.4
		c0.1-0.5,0.3-0.7,0.7-0.7h1.8v7.2h-16.2v-2.2c0-0.6,0.3-1,0.8-1.2l0.2,0c0.1,0,0.1,0,0.2,0c0.1,0,0.2,0,0.3-0.1l0.9-0.2V268
		l-0.9-0.2c-0.1,0-0.2,0-0.3-0.1c-0.1,0-0.1,0-0.2,0l-0.2,0c-0.5-0.2-0.8-0.5-0.8-1.2v-2.2h16.2V271.4z"/>
</g>
<g class="st15">
	<path class="st2" d="M174.8,334.1c-1.5,2.5-3.5,4.4-6.1,5.9c-2.6,1.4-5.6,2.1-8.9,2.1c-3.3,0-6.3-0.7-8.9-2.1
		c-2.6-1.4-4.7-3.3-6.2-5.8c-1.5-2.5-2.2-5.3-2.2-8.6c0-3.2,0.7-6.1,2.2-8.6c1.5-2.5,3.5-4.4,6.2-5.8c2.6-1.4,5.6-2.1,8.9-2.1
		c3.4,0,6.4,0.7,9,2.1c2.6,1.4,4.7,3.4,6.1,5.9c1.4,2.5,2.2,5.3,2.2,8.4C177,328.8,176.2,331.6,174.8,334.1z M167.6,317.4
		c-1.9-2.1-4.5-3.1-8-3.1c-3.5,0-6.2,1-8,3.1c-1.9,2.1-2.8,4.8-2.8,8.2c0,3.4,0.9,6.2,2.8,8.3c1.9,2.1,4.6,3.1,8,3.1s6.1-1,8-3.1
		c1.9-2.1,2.8-4.8,2.8-8.2C170.4,322.2,169.5,319.5,167.6,317.4z"/>
	<path class="st2" d="M204.9,318h-2.7c-0.6,0-0.9-0.3-1.1-0.8c-0.2-1.2-0.3-2.1-0.3-2.9h-12.2v9.5h11.9v4.8h-11.9v8.7l1.4,0.2
		c0.2,0,0.3,0.1,0.4,0.1c0.1,0,0.2,0,0.3,0l0.3,0c0.8,0.2,1.2,0.6,1.2,1.4v2.6h-13.5v-2.6c0-0.7,0.4-1.2,1.2-1.4l0.3,0
		c0.1,0,0.2,0,0.3,0c0.1,0,0.2-0.1,0.4-0.1l1.4-0.2V314l-1.4-0.2c-0.2,0-0.3-0.1-0.4-0.1c-0.1,0-0.2,0-0.3,0l-0.3,0
		c-0.8-0.2-1.2-0.6-1.2-1.4v-2.6h26.3V318z"/>
	<path class="st2" d="M242.6,318h-2.7c-0.6,0-0.9-0.3-1.1-0.8c-0.2-1.2-0.3-2.1-0.3-2.9h-11v8.9H239v4.6h-11.6v9.1h11
		c0.1-0.7,0.2-1.7,0.3-2.9c0.2-0.6,0.5-0.8,1.1-0.8h2.7v8.5h-25.1v-2.6c0-0.7,0.4-1.2,1.2-1.4l0.3,0c0.1,0,0.2,0,0.3,0
		c0.1,0,0.2-0.1,0.4-0.1l1.4-0.2V314l-1.4-0.2c-0.2,0-0.3-0.1-0.4-0.1c-0.1,0-0.2,0-0.3,0l-0.3,0c-0.8-0.2-1.2-0.6-1.2-1.4v-2.6
		h25.1V318z"/>
	<path class="st2" d="M279.5,339.1v2.6H265v-2.6c0-0.7,0.4-1.2,1.2-1.4l1.4-0.3l-5.8-9.1c0,0.2-0.1,0.3-0.2,0.5l-0.2,0.4l-5.3,8
		l2,0.4c0.8,0.2,1.2,0.6,1.2,1.4v2.6h-14.7v-2.6c0-0.7,0.4-1.2,1.2-1.4l3.5-0.4l8.4-12.2l-7.8-11.2l-3.6-0.4
		c-0.8-0.2-1.2-0.6-1.2-1.4v-2.6h14.7v2.6c0,0.7-0.4,1.2-1.2,1.4l-1.6,0.3l5.4,8.2l0.3-0.6c0.2-0.3,0.3-0.5,0.3-0.6l4.7-7l-1.8-0.4
		c-0.8-0.2-1.2-0.6-1.2-1.4v-2.6H279v2.6c0,0.7-0.4,1.2-1.2,1.4l-3.6,0.4l-7.8,11l8.3,12.4l3.6,0.4
		C279.1,337.9,279.5,338.4,279.5,339.1z"/>
	<path class="st2" d="M293.4,313.6c-0.1,0-0.2,0-0.3,0c-0.1,0-0.2,0.1-0.4,0.1l-1.4,0.2v23.4l1.4,0.2c0.2,0,0.3,0.1,0.4,0.1
		c0.1,0,0.2,0,0.3,0l0.3,0c0.8,0.2,1.2,0.6,1.2,1.4v2.6h-13.5v-2.6c0-0.7,0.4-1.2,1.2-1.4l0.3,0l0.7-0.1l1.4-0.2V314l-1.4-0.2
		c-0.2,0-0.3-0.1-0.4-0.1c-0.1,0-0.2,0-0.3,0l-0.3,0c-0.8-0.2-1.2-0.6-1.2-1.4v-2.6h13.5v2.6c0,0.7-0.4,1.2-1.2,1.4L293.4,313.6z"/>
	<path class="st2" d="M319,331.7c0,1.4-0.3,2.7-0.8,4.1c-0.5,1.3-1.3,2.4-2.3,3.3c-1,1-2.3,1.7-3.7,2.2c-1.4,0.5-3.1,0.8-5,0.8h-0.7
		c-3,0-6.2-0.6-9.8-1.7v-8.3h2.7c0.6,0,1,0.3,1.1,0.8c0.1,0.4,0.2,1.6,0.4,3.7c1.3,0.4,3.5,0.6,6.5,0.6c1.8,0,3.2-0.4,4.2-1.2
		c1-0.8,1.5-2,1.5-3.5c0-0.8-0.2-1.5-0.7-2.1c-0.4-0.5-1-1-1.8-1.3c-0.8-0.4-1.6-0.7-2.5-0.9l-1-0.3l-1.8-0.5
		c-0.9-0.3-1.9-0.7-2.9-1.1c-0.9-0.4-1.7-0.9-2.5-1.6c-0.8-0.7-1.3-1.5-1.7-2.5c-0.5-1.1-0.7-2.3-0.7-3.7c0-1.2,0.3-2.4,0.8-3.4
		c0.5-1.1,1.2-2.1,2.2-3c0.9-0.8,2.1-1.5,3.5-2c1.4-0.5,3-0.8,4.8-0.8c3.3,0,6.6,0.6,9.8,1.8v8.2h-2.7c-0.6,0-0.9-0.3-1.1-0.8
		c-0.1-0.4-0.2-1.6-0.4-3.6c-1.1-0.5-3-0.7-5.5-0.7c-0.8,0-1.6,0.1-2.3,0.3c-0.7,0.2-1.3,0.5-1.7,0.8c-0.5,0.4-0.8,0.8-1,1.3
		c-0.2,0.4-0.3,1-0.3,1.6c0,0.7,0.2,1.3,0.7,1.9c0.5,0.5,1.1,1,1.7,1.3c0.9,0.4,1.8,0.7,2.5,1c0.3,0.1,1.3,0.4,2.9,0.9
		c0.7,0.2,1.6,0.6,2.9,1.1c0.9,0.4,1.8,0.9,2.5,1.6c0.8,0.7,1.4,1.5,1.8,2.4C318.8,329.1,319,330.3,319,331.7z"/>
	<path class="st2" d="M348.8,317.2h-2.7c-0.6,0-1-0.3-1.1-0.8c-0.1-0.5-0.2-1.1-0.2-1.8h-6.9v22.8l1.4,0.2c0.2,0,0.3,0.1,0.4,0.1
		c0.1,0,0.2,0,0.3,0l0.3,0c0.8,0.2,1.2,0.6,1.2,1.4v2.6h-13.5v-2.6c0-0.7,0.4-1.2,1.2-1.4l0.3,0c0.1,0,0.2,0,0.3,0
		c0.1,0,0.2-0.1,0.4-0.1l1.4-0.2v-22.9h-6.9c-0.1,0.8-0.1,1.4-0.2,1.9c-0.2,0.6-0.5,0.8-1.1,0.8h-2.7v-7.6h28.4V317.2z"/>
	<path class="st2" d="M362.5,313.6c-0.1,0-0.2,0-0.3,0c-0.1,0-0.2,0.1-0.4,0.1l-1.4,0.2v23.4l1.4,0.2c0.2,0,0.3,0.1,0.4,0.1
		c0.1,0,0.2,0,0.3,0l0.3,0c0.8,0.2,1.2,0.6,1.2,1.4v2.6h-13.5v-2.6c0-0.7,0.4-1.2,1.2-1.4l0.3,0l0.7-0.1l1.4-0.2V314l-1.4-0.2
		c-0.2,0-0.3-0.1-0.4-0.1c-0.1,0-0.2,0-0.3,0l-0.3,0c-0.8-0.2-1.2-0.6-1.2-1.4v-2.6H364v2.6c0,0.7-0.4,1.2-1.2,1.4L362.5,313.6z"/>
	<path class="st2" d="M401.8,312.2c0,0.7-0.4,1.2-1.2,1.4l-0.3,0c-0.1,0-0.2,0-0.3,0c-0.1,0-0.2,0.1-0.4,0.1l-1.4,0.2v27.8h-3.3
		c-0.4,0-0.8-0.1-1.2-0.2c-0.3-0.1-0.6-0.4-1-0.8l-17.8-21.4c0.1,0.7,0.1,1.1,0.1,1.4l0,1.3v15.4l3.1,0.4c0.8,0.2,1.2,0.6,1.2,1.4
		v2.6h-13.4v-2.6c0-0.7,0.4-1.2,1.2-1.4l0.3,0l0.7-0.1l1.4-0.2V314l-1.4-0.2c-0.2,0-0.3-0.1-0.4-0.1c-0.1,0-0.2,0-0.3,0l-0.3,0
		c-0.8-0.2-1.2-0.6-1.2-1.4v-2.6h6.9l0.7,0c0.2,0,0.4,0,0.5,0.1c0.1,0,0.3,0.1,0.4,0.3l0.5,0.5l17.9,21.5l-0.1-1.5
		c0-0.3,0-0.8,0-1.4V314l-3.1-0.4c-0.8-0.2-1.2-0.6-1.2-1.4v-2.6h13.4V312.2z"/>
	<path class="st2" d="M433.3,338.6c-0.9,0.6-1.8,1.1-2.7,1.6c-0.9,0.4-1.9,0.8-3,1.1c-1.1,0.3-2.3,0.5-3.4,0.6
		c-1.4,0.1-2.7,0.2-3.9,0.2c-2.4,0-4.7-0.4-6.8-1.2c-2.1-0.8-3.9-2-5.4-3.4c-1.6-1.5-2.8-3.3-3.6-5.2c-0.8-2-1.3-4.2-1.3-6.6
		c0-2.5,0.4-4.7,1.2-6.6c0.8-2,2-3.8,3.6-5.2c1.5-1.4,3.3-2.6,5.6-3.4c2.1-0.7,4.4-1.1,7-1.2h0.3c3.6,0,7.6,0.8,12.1,2.3v8.2h-2.7
		c-0.6,0-0.9-0.3-1.1-0.8c-0.1-0.4-0.2-1.6-0.4-3.5c-2.3-0.7-5-1.1-8.1-1.1c-1.6,0-3.1,0.3-4.5,0.8c-1.4,0.5-2.5,1.3-3.5,2.3
		c-1,1-1.7,2.2-2.2,3.6c-0.5,1.4-0.8,3-0.8,4.7c0,1.9,0.3,3.6,0.8,5c0.6,1.5,1.3,2.7,2.3,3.7c1,1,2.2,1.7,3.5,2.3
		c1.4,0.5,2.9,0.8,4.5,0.8c1.3,0,2.6-0.1,3.7-0.4c1-0.2,2-0.6,3-1v-5.8h-4.2c-0.4,0-0.7-0.1-1-0.4c-0.2-0.2-0.3-0.5-0.3-0.8v-3.4
		h11.3V338.6z"/>
	<path class="st2" d="M475,332.3c0,1.4-0.3,2.6-0.8,3.8c-0.6,1.2-1.4,2.2-2.4,3c-1,0.8-2.3,1.5-3.9,2c-1.5,0.5-3.3,0.7-5.3,0.7
		h-16.5v-2.6c0-0.7,0.4-1.2,1.2-1.4l0.3,0c0.1,0,0.2,0,0.3,0c0.1,0,0.2-0.1,0.4-0.1l1.4-0.2V314l-1.4-0.2c-0.2,0-0.3-0.1-0.4-0.1
		c-0.1,0-0.2,0-0.3,0l-0.3,0c-0.8-0.2-1.2-0.6-1.2-1.4v-2.6h15.3c2.3,0,4.2,0.2,5.7,0.6c1.6,0.4,2.9,1,3.9,1.7
		c1,0.7,1.7,1.6,2.2,2.7s0.7,2.2,0.7,3.5c0,0.8-0.1,1.5-0.3,2.2c-0.2,0.7-0.6,1.3-1.1,2c-0.5,0.5-1.1,1.1-1.9,1.6
		c-0.7,0.4-1.6,0.9-2.7,1.2C472.6,326.1,475,328.5,475,332.3z M461.1,323.5c2.2,0,3.8-0.4,4.9-1.1c1.1-0.7,1.7-1.9,1.7-3.6
		c0-1.7-0.5-2.9-1.5-3.6c-1-0.7-2.5-1.1-4.7-1.1H456v9.3H461.1z M468.7,332.1c0-0.6-0.1-1.2-0.4-1.9c-0.3-0.6-0.6-1.1-1.1-1.4
		c-0.5-0.4-1.1-0.7-1.9-0.9c-0.8-0.2-1.7-0.3-2.9-0.3H456v9.4h6.5c1.2,0,2.2-0.1,3-0.4c0.8-0.3,1.4-0.6,1.9-1.1c0.5-0.5,0.8-1,1-1.6
		C468.6,333.5,468.7,332.9,468.7,332.1z"/>
	<path class="st2" d="M511.7,312.2c0,0.7-0.4,1.2-1.2,1.4l-0.3,0c-0.1,0-0.2,0-0.3,0c-0.1,0-0.2,0.1-0.4,0.1l-1.4,0.2v14.9
		c0,1.9-0.3,3.7-1,5.3c-0.7,1.7-1.6,3.1-2.8,4.2c-1.2,1.2-2.7,2.1-4.5,2.8c-1.7,0.7-3.7,1-5.9,1c-2.2,0-4.2-0.3-5.9-1
		c-1.7-0.7-3.2-1.6-4.4-2.8c-1.2-1.2-2.2-2.6-2.8-4.2c-0.6-1.5-0.9-3.3-0.9-5.3V314l-1.4-0.2c-0.2,0-0.3-0.1-0.4-0.1
		c-0.1,0-0.2,0-0.3,0l-0.3,0c-0.8-0.2-1.2-0.6-1.2-1.4v-2.6H490v2.6c0,0.7-0.4,1.2-1.2,1.4l-0.3,0c-0.1,0-0.2,0-0.3,0
		c-0.1,0-0.3,0.1-0.5,0.1l-1.5,0.2v14.8c0,1.3,0.2,2.4,0.5,3.3c0.3,1,0.8,1.8,1.6,2.6c0.6,0.7,1.4,1.2,2.4,1.6
		c0.9,0.4,2,0.6,3.3,0.6c1.3,0,2.4-0.2,3.3-0.6c1.1-0.4,1.9-1,2.5-1.6c0.6-0.7,1.1-1.5,1.5-2.5c0.4-1.1,0.6-2.2,0.6-3.3V314
		l-1.5-0.2c-0.2,0-0.3-0.1-0.5-0.1c-0.1,0-0.2,0-0.3,0l-0.3,0c-0.8-0.2-1.2-0.6-1.2-1.4v-2.6h13.7V312.2z"/>
	<path class="st2" d="M525.4,313.6c-0.1,0-0.2,0-0.3,0c-0.1,0-0.2,0.1-0.4,0.1l-1.4,0.2v23.4l1.4,0.2c0.2,0,0.3,0.1,0.4,0.1
		c0.1,0,0.2,0,0.3,0l0.3,0c0.8,0.2,1.2,0.6,1.2,1.4v2.6h-13.5v-2.6c0-0.7,0.4-1.2,1.2-1.4l0.3,0l0.7-0.1l1.4-0.2V314l-1.4-0.2
		c-0.2,0-0.3-0.1-0.4-0.1c-0.1,0-0.2,0-0.3,0l-0.3,0c-0.8-0.2-1.2-0.6-1.2-1.4v-2.6h13.5v2.6c0,0.7-0.4,1.2-1.2,1.4L525.4,313.6z"/>
	<path class="st2" d="M553.5,341.8h-24.7v-2.6c0-0.7,0.4-1.2,1.2-1.4l0.3,0l0.7-0.1l1.4-0.2V314l-1.4-0.2c-0.2,0-0.3-0.1-0.4-0.1
		c-0.1,0-0.2,0-0.3,0l-0.3,0c-0.8-0.2-1.2-0.6-1.2-1.4v-2.6h13.5v2.6c0,0.7-0.4,1.2-1.2,1.4l-0.3,0l-0.7,0.1l-1.4,0.2v22.8h11
		c0.1-1.2,0.2-1.8,0.2-1.9c0.2-0.6,0.5-0.8,1.1-0.8h2.5V341.8z"/>
	<path class="st2" d="M588.8,325.6c0,2.4-0.4,4.5-1.3,6.5c-0.9,2-2,3.8-3.5,5.1c-1.4,1.4-3.3,2.5-5.5,3.3c-2.1,0.8-4.5,1.2-7,1.2
		h-16.1v-2.6c0-0.7,0.4-1.2,1.2-1.4l0.3,0c0.1,0,0.2,0,0.3,0c0.1,0,0.2-0.1,0.4-0.1l1.4-0.2V314l-1.4-0.2c-0.2,0-0.3-0.1-0.4-0.1
		c-0.1,0-0.2,0-0.3,0l-0.3,0c-0.8-0.2-1.2-0.6-1.2-1.4v-2.6h16.1c2.6,0,4.9,0.4,7,1.2c2.2,0.8,4,1.9,5.5,3.3
		c1.4,1.4,2.6,3.1,3.5,5.1C588.4,321.1,588.8,323.3,588.8,325.6z M582.3,325.6c0-1.8-0.3-3.3-0.8-4.7c-0.6-1.5-1.3-2.7-2.1-3.6
		c-0.9-0.9-2-1.7-3.4-2.2c-1.3-0.5-2.8-0.8-4.5-0.8h-6.1V337h6.1c1.7,0,3.2-0.3,4.5-0.8c1.4-0.6,2.5-1.3,3.4-2.2
		c0.9-0.9,1.6-2.1,2.1-3.6C582,329,582.3,327.4,582.3,325.6z"/>
	<path class="st2" d="M602.5,313.6c-0.1,0-0.2,0-0.3,0c-0.1,0-0.2,0.1-0.4,0.1l-1.4,0.2v23.4l1.4,0.2c0.2,0,0.3,0.1,0.4,0.1
		c0.1,0,0.2,0,0.3,0l0.3,0c0.8,0.2,1.2,0.6,1.2,1.4v2.6h-13.5v-2.6c0-0.7,0.4-1.2,1.2-1.4l0.3,0l0.7-0.1l1.4-0.2V314l-1.4-0.2
		c-0.2,0-0.3-0.1-0.4-0.1c-0.1,0-0.2,0-0.3,0l-0.3,0c-0.8-0.2-1.2-0.6-1.2-1.4v-2.6H604v2.6c0,0.7-0.4,1.2-1.2,1.4L602.5,313.6z"/>
	<path class="st2" d="M641.8,312.2c0,0.7-0.4,1.2-1.2,1.4l-0.3,0c-0.1,0-0.2,0-0.3,0c-0.1,0-0.2,0.1-0.4,0.1l-1.4,0.2v27.8h-3.3
		c-0.4,0-0.8-0.1-1.2-0.2c-0.3-0.1-0.6-0.4-1-0.8l-17.8-21.4c0.1,0.7,0.1,1.1,0.1,1.4l0,1.3v15.4l3.1,0.4c0.8,0.2,1.2,0.6,1.2,1.4
		v2.6h-13.4v-2.6c0-0.7,0.4-1.2,1.2-1.4l0.3,0l0.7-0.1l1.4-0.2V314l-1.4-0.2c-0.2,0-0.3-0.1-0.4-0.1c-0.1,0-0.2,0-0.3,0l-0.3,0
		c-0.8-0.2-1.2-0.6-1.2-1.4v-2.6h6.9l0.7,0c0.2,0,0.4,0,0.5,0.1c0.1,0,0.3,0.1,0.4,0.3l0.5,0.5l17.9,21.5l-0.1-1.5
		c0-0.3,0-0.8,0-1.4V314l-3.1-0.4c-0.8-0.2-1.2-0.6-1.2-1.4v-2.6h13.4V312.2z"/>
	<path class="st2" d="M673.3,338.6c-0.9,0.6-1.8,1.1-2.7,1.6c-0.9,0.4-1.9,0.8-3,1.1c-1.1,0.3-2.3,0.5-3.4,0.6
		c-1.4,0.1-2.7,0.2-3.9,0.2c-2.4,0-4.7-0.4-6.8-1.2c-2.1-0.8-3.9-2-5.4-3.4c-1.6-1.5-2.8-3.3-3.6-5.2c-0.8-2-1.3-4.2-1.3-6.6
		c0-2.5,0.4-4.7,1.2-6.6c0.8-2,2-3.8,3.6-5.2c1.5-1.4,3.3-2.6,5.6-3.4c2.1-0.7,4.4-1.1,7-1.2h0.3c3.6,0,7.6,0.8,12.1,2.3v8.2h-2.7
		c-0.6,0-0.9-0.3-1.1-0.8c-0.1-0.4-0.2-1.6-0.4-3.5c-2.3-0.7-5-1.1-8.1-1.1c-1.6,0-3.1,0.3-4.5,0.8c-1.4,0.5-2.5,1.3-3.5,2.3
		c-1,1-1.7,2.2-2.2,3.6c-0.5,1.4-0.8,3-0.8,4.7c0,1.9,0.3,3.6,0.8,5c0.6,1.5,1.3,2.7,2.3,3.7c1,1,2.2,1.7,3.5,2.3
		c1.4,0.5,2.9,0.8,4.5,0.8c1.3,0,2.6-0.1,3.7-0.4c1-0.2,2-0.6,3-1v-5.8h-4.2c-0.4,0-0.7-0.1-1-0.4c-0.2-0.2-0.3-0.5-0.3-0.8v-3.4
		h11.3V338.6z"/>
	<path class="st2" d="M697.4,331.7c0,1.4-0.3,2.7-0.8,4.1c-0.5,1.3-1.3,2.4-2.3,3.3c-1,1-2.3,1.7-3.7,2.2c-1.4,0.5-3.1,0.8-5,0.8
		h-0.7c-3,0-6.2-0.6-9.8-1.7v-8.3h2.7c0.6,0,1,0.3,1.1,0.8c0.1,0.4,0.2,1.6,0.4,3.7c1.3,0.4,3.5,0.6,6.5,0.6c1.8,0,3.2-0.4,4.2-1.2
		c1-0.8,1.5-2,1.5-3.5c0-0.8-0.2-1.5-0.7-2.1c-0.4-0.5-1-1-1.8-1.3c-0.8-0.4-1.6-0.7-2.5-0.9l-1-0.3l-1.8-0.5
		c-0.9-0.3-1.9-0.7-2.9-1.1c-0.9-0.4-1.7-0.9-2.5-1.6c-0.8-0.7-1.3-1.5-1.7-2.5c-0.5-1.1-0.7-2.3-0.7-3.7c0-1.2,0.3-2.4,0.8-3.4
		c0.5-1.1,1.2-2.1,2.2-3c0.9-0.8,2.1-1.5,3.5-2c1.4-0.5,3-0.8,4.8-0.8c3.3,0,6.6,0.6,9.8,1.8v8.2H694c-0.6,0-0.9-0.3-1.1-0.8
		c-0.1-0.4-0.2-1.6-0.4-3.6c-1.1-0.5-3-0.7-5.5-0.7c-0.8,0-1.6,0.1-2.3,0.3c-0.7,0.2-1.3,0.5-1.7,0.8c-0.5,0.4-0.8,0.8-1,1.3
		c-0.2,0.4-0.3,1-0.3,1.6c0,0.7,0.2,1.3,0.7,1.9c0.5,0.5,1.1,1,1.7,1.3c0.9,0.4,1.8,0.7,2.5,1c0.3,0.1,1.3,0.4,2.9,0.9
		c0.7,0.2,1.6,0.6,2.9,1.1c0.9,0.4,1.8,0.9,2.5,1.6c0.8,0.7,1.4,1.5,1.8,2.4C697.2,329.1,697.4,330.3,697.4,331.7z"/>
</g>
<g class="st15">
	<path class="st2" d="M639.5,356.1c-0.1,0-0.2,0-0.2,0s-0.2,0-0.3,0.1l-1,0.2v18.9l1,0.2c0.1,0,0.2,0,0.3,0.1c0.1,0,0.2,0,0.2,0
		l0.2,0c0.6,0.1,0.9,0.5,0.9,1.1v2.1h-10.2v-2.1c0-0.6,0.3-1,0.9-1.1l2.3-0.3v-13.2l0-1c0-0.2,0-0.6,0.1-1.2l-7.9,14.8
		c-0.2,0.4-0.4,0.6-0.7,0.8c-0.3,0.2-0.6,0.3-1,0.3h-0.6c-0.4,0-0.7-0.1-1-0.3c-0.3-0.2-0.5-0.4-0.7-0.8l-8-14.8l0.1,1.2
		c0,0.2,0,0.6,0,1v13.2l2.3,0.3c0.6,0.1,0.9,0.5,0.9,1.1v2.1h-10.2v-2.1c0-0.6,0.3-1,0.9-1.1l0.2,0l0.5-0.1l1.1-0.2v-18.9l-1.1-0.2
		c-0.1,0-0.2,0-0.3-0.1c-0.1,0-0.2,0-0.2,0l-0.2,0c-0.6-0.1-0.9-0.5-0.9-1.1v-2.1h6.4l0.6,0c0.1,0,0.3,0,0.4,0.1
		c0.1,0,0.2,0.1,0.3,0.3c0.1,0.1,0.2,0.2,0.3,0.4l7.8,14.4c0.1,0.3,0.3,0.5,0.3,0.7c0.1,0.2,0.2,0.4,0.2,0.5l0.5,1.3l0.5-1.3
		c0.2-0.5,0.4-0.9,0.6-1.2l7.7-14.4c0.1-0.2,0.2-0.4,0.3-0.4c0.1-0.1,0.3-0.2,0.4-0.3c0.2,0,0.3-0.1,0.4-0.1l0.5,0h6.4v2.1
		c0,0.6-0.3,1-0.9,1.1L639.5,356.1z"/>
	<path class="st2" d="M660.1,354.8c0,0.5-0.1,1-0.2,1.4c0,0.2-0.1,0.3-0.2,0.5c-0.1,0.2-0.2,0.3-0.2,0.4l-9.8,20.3
		c-0.2,0.4-0.5,0.8-0.9,1.1c-0.4,0.3-0.9,0.4-1.5,0.4H644l10.1-19.9c0.5-0.9,0.9-1.6,1.4-2.1H645l-0.1,1.1l-0.1,1.2
		c-0.1,0.4-0.4,0.6-0.9,0.6H642v-6.9h18V354.8z"/>
	<path class="st2" d="M661.3,378.9v-1.5c0-0.3,0.1-0.6,0.2-0.9c0.1-0.3,0.3-0.6,0.6-0.9l7.9-7.9l0.6-0.6c0.7-0.8,1.1-1.2,1.2-1.3
		c0.5-0.6,0.9-1.2,1.3-1.8c0.4-0.6,0.7-1.3,0.8-1.8s0.3-1.2,0.3-1.9c0-0.7-0.1-1.2-0.3-1.7s-0.4-0.8-0.8-1.2
		c-0.3-0.3-0.7-0.6-1.2-0.7c-0.6-0.2-1.1-0.3-1.6-0.3c-1.1,0-1.9,0.3-2.6,0.8c-0.7,0.5-1.2,1.2-1.4,2.2c-0.1,0.5-0.3,0.8-0.6,1
		c-0.3,0.2-0.6,0.3-1,0.3c-0.1,0-0.3,0-0.6-0.1l-2.3-0.4c0.2-1.2,0.5-2.4,1-3.3c0.5-0.9,1.1-1.7,1.9-2.3c0.7-0.6,1.6-1.1,2.7-1.4
		c1-0.3,2-0.5,3.2-0.5c1.2,0,2.3,0.2,3.3,0.5c0.9,0.3,1.8,0.8,2.5,1.5c0.7,0.6,1.3,1.4,1.7,2.3c0.4,0.9,0.6,1.9,0.6,3
		c0,0.9-0.1,1.8-0.4,2.7c-0.3,0.8-0.7,1.6-1.1,2.3c-0.5,0.8-1,1.5-1.7,2.2l-2,2.1l-5.9,6c0.3-0.1,0.9-0.2,1.7-0.4
		c0.7-0.1,1.3-0.1,1.6-0.1h5.8c0.1-1,0.1-1.5,0.1-1.6c0.1-0.4,0.4-0.6,0.8-0.6h1.9v6.4H661.3z"/>
	<path class="st2" d="M686.3,378.6c-1.1-0.4-2-0.9-2.9-1.5c-0.8-0.6-1.4-1.4-1.8-2.4s-0.6-2-0.6-3.1c0-1.5,0.4-2.8,1.1-3.9
		c0.7-1.1,1.9-1.9,3.5-2.4c-1.3-0.5-2.2-1.3-2.8-2.3c-0.6-0.9-0.9-2.1-0.9-3.5c0-1,0.2-1.9,0.6-2.8c0.4-0.8,0.9-1.5,1.7-2.2
		c0.7-0.6,1.5-1.1,2.6-1.5c1-0.4,2.1-0.5,3.3-0.5s2.3,0.2,3.3,0.5c1.1,0.4,1.9,0.9,2.6,1.5c0.7,0.7,1.3,1.4,1.7,2.2
		c0.4,0.9,0.6,1.8,0.6,2.8c0,1.3-0.3,2.5-1,3.5c-0.7,1-1.6,1.7-2.8,2.3c1.6,0.5,2.8,1.3,3.5,2.4c0.7,1.1,1.1,2.4,1.1,3.9
		c0,1.2-0.2,2.2-0.6,3.1s-1,1.7-1.8,2.4c-0.8,0.7-1.8,1.2-2.9,1.5c-1.1,0.4-2.3,0.5-3.7,0.5C688.6,379.2,687.4,379,686.3,378.6z
		 M691.9,375.4c0.5-0.2,1-0.5,1.4-0.9c0.4-0.4,0.7-0.8,0.9-1.3c0.2-0.5,0.3-1.1,0.3-1.7c0-1.4-0.4-2.5-1.2-3.2
		c-0.8-0.7-1.9-1.1-3.3-1.1c-1.4,0-2.5,0.4-3.3,1.1c-0.8,0.7-1.2,1.8-1.2,3.2c0,0.6,0.1,1.2,0.3,1.7c0.2,0.5,0.5,0.9,0.9,1.3
		c0.4,0.4,0.8,0.7,1.4,0.9c0.6,0.2,1.2,0.3,1.9,0.3C690.7,375.7,691.4,375.6,691.9,375.4z M691.8,363.3c0.5-0.2,0.9-0.5,1.2-0.9
		c0.3-0.4,0.5-0.8,0.6-1.3c0.1-0.5,0.2-1,0.2-1.5c0-0.4-0.1-0.9-0.3-1.4c-0.1-0.5-0.4-0.9-0.7-1.2c-0.3-0.3-0.7-0.6-1.2-0.8
		c-0.4-0.2-1-0.3-1.7-0.3c-0.7,0-1.3,0.1-1.7,0.3c-0.6,0.2-1,0.5-1.2,0.8c-0.3,0.3-0.5,0.7-0.7,1.2c-0.1,0.4-0.2,0.9-0.2,1.4
		c0,0.6,0.1,1.1,0.2,1.5c0.1,0.5,0.4,0.9,0.6,1.3c0.3,0.4,0.7,0.7,1.2,0.9c0.6,0.2,1.2,0.4,1.8,0.4
		C690.6,363.7,691.2,363.6,691.8,363.3z"/>
</g>
</svg>
